<?xml version="1.0" encoding="UTF-8"?><svg xmlns="http://www.w3.org/2000/svg" xmlns:xlink="http://www.w3.org/1999/xlink" clip-rule="evenodd" stroke-miterlimit="10" viewBox="0 0 1024 768"><desc>SVG generated by Keynote</desc><defs></defs><g transform="matrix(1.00, 0.00, -0.00, -1.00, 0.0, 768.0)"><path d="M 0.0 0.0 L 1024.0 0.0 L 1024.0 768.0 L 0.0 768.0 Z M 0.0 0.0 " fill="#000000"></path><g opacity="0.57"><g><clipPath id="clip0x6080010bfc20"><path d="M 0.0 812.0 L 1024.0 812.0 L 1024.0 -61.0 L 0.0 -61.0 Z M 0.0 811.5 "></path></clipPath><g clip-path="url(#clip0x6080010bfc20)"><g><clipPath id="clip0x6080010bfda0"><path d="M 0.0 0.0 L 1024.0 0.0 L 1024.0 768.0 L 0.0 768.0 Z M 0.0 0.0 "></path></clipPath><g clip-path="url(#clip0x6080010bfda0)"><image xlink:href="../../63FDE3F6-E1E4-4BEC-8BAE-FAEF5D63F8B5/assets/4BF14022B377846F912486EE1AD28972.jpeg" width="1280.00" height="853.00" transform="matrix(0.93, 0.00, -0.00, -0.92, -80.0, 778.0)"></image></g></g></g></g></g><g><clipPath id="clip0x6000010ad980"><path d="M 0.0 594.0 L 1024.0 594.0 L 1024.0 174.0 L 0.0 174.0 Z M 0.0 594.5 "></path></clipPath><g clip-path="url(#clip0x6000010ad980)"><image xlink:href="../../63FDE3F6-E1E4-4BEC-8BAE-FAEF5D63F8B5/assets/4BF14022B377846F912486EE1AD28972.jpeg" width="1280.00" height="853.00" transform="matrix(0.93, 0.00, -0.00, -0.92, -80.0, 778.0)"></image></g></g><text xml:space="preserve" font-family="Helvetica,Helvetica" font-size="80.0" fill="#FEFFFF" transform="matrix(1.00, 0.00, -0.00, -1.00, 105.1, 619.2)">M</text><text xml:space="preserve" font-family="Helvetica,Helvetica" font-size="80.0" fill="#FEFFFF" transform="matrix(1.00, 0.00, -0.00, -1.00, 171.8, 619.2)">e</text><text xml:space="preserve" font-family="Helvetica,Helvetica" font-size="80.0" fill="#FEFFFF" transform="matrix(1.00, 0.00, -0.00, -1.00, 216.3, 619.2)">t</text><text xml:space="preserve" font-family="Helvetica,Helvetica" font-size="80.0" fill="#FEFFFF" transform="matrix(1.00, 0.00, -0.00, -1.00, 238.5, 619.2)">t</text><text xml:space="preserve" font-family="Helvetica,Helvetica" font-size="80.0" fill="#FEFFFF" transform="matrix(1.00, 0.00, -0.00, -1.00, 260.7, 619.2)">r</text><text xml:space="preserve" font-family="Helvetica,Helvetica" font-size="80.0" fill="#FEFFFF" transform="matrix(1.00, 0.00, -0.00, -1.00, 287.3, 619.2)">e</text><text xml:space="preserve" font-family="Helvetica,Helvetica" font-size="80.0" fill="#FEFFFF" transform="matrix(1.00, 0.00, -0.00, -1.00, 331.8, 619.2)"> </text><text xml:space="preserve" font-family="Helvetica,Helvetica" font-size="80.0" fill="#FEFFFF" transform="matrix(1.00, 0.00, -0.00, -1.00, 354.1, 619.2)">s</text><text xml:space="preserve" font-family="Helvetica,Helvetica" font-size="80.0" fill="#FEFFFF" transform="matrix(1.00, 0.00, -0.00, -1.00, 394.1, 619.2)">o</text><text xml:space="preserve" font-family="Helvetica,Helvetica" font-size="80.0" fill="#FEFFFF" transform="matrix(1.00, 0.00, -0.00, -1.00, 438.6, 619.2)">n</text><text xml:space="preserve" font-family="Helvetica,Helvetica" font-size="80.0" fill="#FEFFFF" transform="matrix(1.00, 0.00, -0.00, -1.00, 483.1, 619.2)"> </text><text xml:space="preserve" font-family="Helvetica,Helvetica" font-size="80.0" fill="#FEFFFF" transform="matrix(1.00, 0.00, -0.00, -1.00, 505.3, 619.2)">g</text><text xml:space="preserve" font-family="Helvetica,Helvetica" font-size="80.0" fill="#FEFFFF" transform="matrix(1.00, 0.00, -0.00, -1.00, 549.8, 619.2)">r</text><text xml:space="preserve" font-family="Helvetica,Helvetica" font-size="80.0" fill="#FEFFFF" transform="matrix(1.00, 0.00, -0.00, -1.00, 576.4, 619.2)">a</text><text xml:space="preserve" font-family="Helvetica,Helvetica" font-size="80.0" fill="#FEFFFF" transform="matrix(1.00, 0.00, -0.00, -1.00, 620.9, 619.2)">i</text><text xml:space="preserve" font-family="Helvetica,Helvetica" font-size="80.0" fill="#FEFFFF" transform="matrix(1.00, 0.00, -0.00, -1.00, 638.7, 619.2)">n</text><text xml:space="preserve" font-family="Helvetica,Helvetica" font-size="80.0" fill="#FEFFFF" transform="matrix(1.00, 0.00, -0.00, -1.00, 683.2, 619.2)"> </text><text xml:space="preserve" font-family="Helvetica,Helvetica" font-size="80.0" fill="#FEFFFF" transform="matrix(1.00, 0.00, -0.00, -1.00, 705.4, 619.2)">d</text><text xml:space="preserve" font-family="Helvetica,Helvetica" font-size="80.0" fill="#FEFFFF" transform="matrix(1.00, 0.00, -0.00, -1.00, 750.0, 619.2)">e</text><text xml:space="preserve" font-family="Helvetica,Helvetica" font-size="80.0" fill="#FEFFFF" transform="matrix(1.00, 0.00, -0.00, -1.00, 794.5, 619.2)"> </text><text xml:space="preserve" font-family="Helvetica,Helvetica" font-size="80.0" fill="#FEFFFF" transform="matrix(1.00, 0.00, -0.00, -1.00, 816.7, 619.2)">s</text><text xml:space="preserve" font-family="Helvetica,Helvetica" font-size="80.0" fill="#FEFFFF" transform="matrix(1.00, 0.00, -0.00, -1.00, 856.7, 619.2)">e</text><text xml:space="preserve" font-family="Helvetica,Helvetica" font-size="80.0" fill="#FEFFFF" transform="matrix(1.00, 0.00, -0.00, -1.00, 901.1, 619.2)">l</text><text xml:space="preserve" font-family="Helvetica,Helvetica" font-size="67.2" fill="#FEFFFF" transform="matrix(1.00, 0.00, -0.00, -1.00, 210.4, 110.3)">Q</text><text xml:space="preserve" font-family="Helvetica,Helvetica" font-size="67.2" fill="#FEFFFF" transform="matrix(1.00, 0.00, -0.00, -1.00, 262.6, 110.3)">u</text><text xml:space="preserve" font-family="Helvetica,Helvetica" font-size="67.2" fill="#FEFFFF" transform="matrix(1.00, 0.00, -0.00, -1.00, 300.0, 110.3)">a</text><text xml:space="preserve" font-family="Helvetica,Helvetica" font-size="67.2" fill="#FEFFFF" transform="matrix(1.00, 0.00, -0.00, -1.00, 337.4, 110.3)">n</text><text xml:space="preserve" font-family="Helvetica,Helvetica" font-size="67.2" fill="#FEFFFF" transform="matrix(1.00, 0.00, -0.00, -1.00, 374.7, 110.3)">d</text><text xml:space="preserve" font-family="Helvetica,Helvetica" font-size="67.2" fill="#FEFFFF" transform="matrix(1.00, 0.00, -0.00, -1.00, 412.1, 110.3)"> </text><text xml:space="preserve" font-family="Helvetica,Helvetica" font-size="67.2" fill="#FEFFFF" transform="matrix(1.00, 0.00, -0.00, -1.00, 430.7, 110.3)">q</text><text xml:space="preserve" font-family="Helvetica,Helvetica" font-size="67.2" fill="#FEFFFF" transform="matrix(1.00, 0.00, -0.00, -1.00, 468.1, 110.3)">u</text><text xml:space="preserve" font-family="Helvetica,Helvetica" font-size="67.2" fill="#FEFFFF" transform="matrix(1.00, 0.00, -0.00, -1.00, 505.5, 110.3)">e</text><text xml:space="preserve" font-family="Helvetica,Helvetica" font-size="67.2" fill="#FEFFFF" transform="matrix(1.00, 0.00, -0.00, -1.00, 542.8, 110.3)">l</text><text xml:space="preserve" font-family="Helvetica,Helvetica" font-size="67.2" fill="#FEFFFF" transform="matrix(1.00, 0.00, -0.00, -1.00, 557.7, 110.3)">q</text><text xml:space="preserve" font-family="Helvetica,Helvetica" font-size="67.2" fill="#FEFFFF" transform="matrix(1.00, 0.00, -0.00, -1.00, 595.1, 110.3)">u</text><text xml:space="preserve" font-family="Helvetica,Helvetica" font-size="67.2" fill="#FEFFFF" transform="matrix(1.00, 0.00, -0.00, -1.00, 632.5, 110.3)">'</text><text xml:space="preserve" font-family="Helvetica,Helvetica" font-size="67.2" fill="#FEFFFF" transform="matrix(1.00, 0.00, -0.00, -1.00, 645.3, 110.3)">u</text><text xml:space="preserve" font-family="Helvetica,Helvetica" font-size="67.2" fill="#FEFFFF" transform="matrix(1.00, 0.00, -0.00, -1.00, 682.6, 110.3)">n</text><text xml:space="preserve" font-family="Helvetica,Helvetica" font-size="67.2" fill="#FEFFFF" transform="matrix(1.00, 0.00, -0.00, -1.00, 720.0, 110.3)"> </text><text xml:space="preserve" font-family="Helvetica,Helvetica" font-size="67.2" fill="#FEFFFF" transform="matrix(1.00, 0.00, -0.00, -1.00, 738.7, 110.3)">n</text><text xml:space="preserve" font-family="Helvetica,Helvetica" font-size="67.2" fill="#FEFFFF" transform="matrix(1.00, 0.00, -0.00, -1.00, 776.0, 110.3)">e</text><text xml:space="preserve" font-family="Helvetica,Helvetica" font-size="67.2" fill="#FEFFFF" transform="matrix(1.00, 0.00, -0.00, -1.00, 813.4, 110.3)"> </text><text xml:space="preserve" font-family="Helvetica,Helvetica" font-size="67.2" fill="#FEFFFF" transform="matrix(1.00, 0.00, -0.00, -1.00, 69.3, 30.3)">s</text><text xml:space="preserve" font-family="Helvetica,Helvetica" font-size="67.2" fill="#FEFFFF" transform="matrix(1.00, 0.00, -0.00, -1.00, 102.9, 30.3)">’</text><text xml:space="preserve" font-family="Helvetica,Helvetica" font-size="67.2" fill="#FEFFFF" transform="matrix(1.00, 0.00, -0.00, -1.00, 117.9, 30.3)">o</text><text xml:space="preserve" font-family="Helvetica,Helvetica" font-size="67.2" fill="#FEFFFF" transform="matrix(1.00, 0.00, -0.00, -1.00, 155.3, 30.3)">c</text><text xml:space="preserve" font-family="Helvetica,Helvetica" font-size="67.2" fill="#FEFFFF" transform="matrix(1.00, 0.00, -0.00, -1.00, 188.9, 30.3)">c</text><text xml:space="preserve" font-family="Helvetica,Helvetica" font-size="67.2" fill="#FEFFFF" transform="matrix(1.00, 0.00, -0.00, -1.00, 222.5, 30.3)">u</text><text xml:space="preserve" font-family="Helvetica,Helvetica" font-size="67.2" fill="#FEFFFF" transform="matrix(1.00, 0.00, -0.00, -1.00, 259.8, 30.3)">p</text><text xml:space="preserve" font-family="Helvetica,Helvetica" font-size="67.2" fill="#FEFFFF" transform="matrix(1.00, 0.00, -0.00, -1.00, 297.2, 30.3)">e</text><text xml:space="preserve" font-family="Helvetica,Helvetica" font-size="67.2" fill="#FEFFFF" transform="matrix(1.00, 0.00, -0.00, -1.00, 334.6, 30.3)">r</text><text xml:space="preserve" font-family="Helvetica,Helvetica" font-size="67.2" fill="#FEFFFF" transform="matrix(1.00, 0.00, -0.00, -1.00, 357.0, 30.3)"> </text><text xml:space="preserve" font-family="Helvetica,Helvetica" font-size="67.2" fill="#FEFFFF" transform="matrix(1.00, 0.00, -0.00, -1.00, 375.7, 30.3)">p</text><text xml:space="preserve" font-family="Helvetica,Helvetica" font-size="67.2" fill="#FEFFFF" transform="matrix(1.00, 0.00, -0.00, -1.00, 413.0, 30.3)">a</text><text xml:space="preserve" font-family="Helvetica,Helvetica" font-size="67.2" fill="#FEFFFF" transform="matrix(1.00, 0.00, -0.00, -1.00, 450.4, 30.3)">s</text><text xml:space="preserve" font-family="Helvetica,Helvetica" font-size="67.2" fill="#FEFFFF" transform="matrix(1.00, 0.00, -0.00, -1.00, 484.0, 30.3)"> </text><text xml:space="preserve" font-family="Helvetica,Helvetica" font-size="67.2" fill="#FEFFFF" transform="matrix(1.00, 0.00, -0.00, -1.00, 502.7, 30.3)">d</text><text xml:space="preserve" font-family="Helvetica,Helvetica" font-size="67.2" fill="#FEFFFF" transform="matrix(1.00, 0.00, -0.00, -1.00, 540.1, 30.3)">e</text><text xml:space="preserve" font-family="Helvetica,Helvetica" font-size="67.2" fill="#FEFFFF" transform="matrix(1.00, 0.00, -0.00, -1.00, 577.5, 30.3)"> </text><text xml:space="preserve" font-family="Helvetica,Helvetica" font-size="67.2" fill="#FEFFFF" transform="matrix(1.00, 0.00, -0.00, -1.00, 596.1, 30.3)">s</text><text xml:space="preserve" font-family="Helvetica,Helvetica" font-size="67.2" fill="#FEFFFF" transform="matrix(1.00, 0.00, -0.00, -1.00, 629.7, 30.3)">e</text><text xml:space="preserve" font-family="Helvetica,Helvetica" font-size="67.2" fill="#FEFFFF" transform="matrix(1.00, 0.00, -0.00, -1.00, 667.1, 30.3)">s</text><text xml:space="preserve" font-family="Helvetica,Helvetica" font-size="67.2" fill="#FEFFFF" transform="matrix(1.00, 0.00, -0.00, -1.00, 700.7, 30.3)"> </text><text xml:space="preserve" font-family="Helvetica,Helvetica" font-size="67.2" fill="#FEFFFF" transform="matrix(1.00, 0.00, -0.00, -1.00, 719.4, 30.3)">o</text><text xml:space="preserve" font-family="Helvetica,Helvetica" font-size="67.2" fill="#FEFFFF" transform="matrix(1.00, 0.00, -0.00, -1.00, 756.7, 30.3)">i</text><text xml:space="preserve" font-family="Helvetica,Helvetica" font-size="67.2" fill="#FEFFFF" transform="matrix(1.00, 0.00, -0.00, -1.00, 771.7, 30.3)">g</text><text xml:space="preserve" font-family="Helvetica,Helvetica" font-size="67.2" fill="#FEFFFF" transform="matrix(1.00, 0.00, -0.00, -1.00, 809.1, 30.3)">n</text><text xml:space="preserve" font-family="Helvetica,Helvetica" font-size="67.2" fill="#FEFFFF" transform="matrix(1.00, 0.00, -0.00, -1.00, 846.5, 30.3)">o</text><text xml:space="preserve" font-family="Helvetica,Helvetica" font-size="67.2" fill="#FEFFFF" transform="matrix(1.00, 0.00, -0.00, -1.00, 883.8, 30.3)">n</text><text xml:space="preserve" font-family="Helvetica,Helvetica" font-size="67.2" fill="#FEFFFF" transform="matrix(1.00, 0.00, -0.00, -1.00, 921.2, 30.3)">s</text></g></svg>