<?xml version="1.0" encoding="UTF-8"?><svg xmlns="http://www.w3.org/2000/svg" xmlns:xlink="http://www.w3.org/1999/xlink" clip-rule="evenodd" stroke-miterlimit="10" viewBox="0 0 1024 768"><desc>SVG generated by Keynote</desc><defs></defs><g transform="matrix(1.00, 0.00, -0.00, -1.00, 0.0, 768.0)"><path d="M 0.0 0.0 L 1024.0 0.0 L 1024.0 768.0 L 0.0 768.0 Z M 0.0 0.0 " fill="#000000"></path><text xml:space="preserve" font-family="Helvetica,Helvetica" font-size="80.0" fill="#FEFFFF" transform="matrix(1.00, 0.00, -0.00, -1.00, 105.1, 619.2)">M</text><text xml:space="preserve" font-family="Helvetica,Helvetica" font-size="80.0" fill="#FEFFFF" transform="matrix(1.00, 0.00, -0.00, -1.00, 171.8, 619.2)">e</text><text xml:space="preserve" font-family="Helvetica,Helvetica" font-size="80.0" fill="#FEFFFF" transform="matrix(1.00, 0.00, -0.00, -1.00, 216.3, 619.2)">t</text><text xml:space="preserve" font-family="Helvetica,Helvetica" font-size="80.0" fill="#FEFFFF" transform="matrix(1.00, 0.00, -0.00, -1.00, 238.5, 619.2)">t</text><text xml:space="preserve" font-family="Helvetica,Helvetica" font-size="80.0" fill="#FEFFFF" transform="matrix(1.00, 0.00, -0.00, -1.00, 260.7, 619.2)">r</text><text xml:space="preserve" font-family="Helvetica,Helvetica" font-size="80.0" fill="#FEFFFF" transform="matrix(1.00, 0.00, -0.00, -1.00, 287.3, 619.2)">e</text><text xml:space="preserve" font-family="Helvetica,Helvetica" font-size="80.0" fill="#FEFFFF" transform="matrix(1.00, 0.00, -0.00, -1.00, 331.8, 619.2)"> </text><text xml:space="preserve" font-family="Helvetica,Helvetica" font-size="80.0" fill="#FEFFFF" transform="matrix(1.00, 0.00, -0.00, -1.00, 354.1, 619.2)">s</text><text xml:space="preserve" font-family="Helvetica,Helvetica" font-size="80.0" fill="#FEFFFF" transform="matrix(1.00, 0.00, -0.00, -1.00, 394.1, 619.2)">o</text><text xml:space="preserve" font-family="Helvetica,Helvetica" font-size="80.0" fill="#FEFFFF" transform="matrix(1.00, 0.00, -0.00, -1.00, 438.6, 619.2)">n</text><text xml:space="preserve" font-family="Helvetica,Helvetica" font-size="80.0" fill="#FEFFFF" transform="matrix(1.00, 0.00, -0.00, -1.00, 483.1, 619.2)"> </text><text xml:space="preserve" font-family="Helvetica,Helvetica" font-size="80.0" fill="#FEFFFF" transform="matrix(1.00, 0.00, -0.00, -1.00, 505.3, 619.2)">g</text><text xml:space="preserve" font-family="Helvetica,Helvetica" font-size="80.0" fill="#FEFFFF" transform="matrix(1.00, 0.00, -0.00, -1.00, 549.8, 619.2)">r</text><text xml:space="preserve" font-family="Helvetica,Helvetica" font-size="80.0" fill="#FEFFFF" transform="matrix(1.00, 0.00, -0.00, -1.00, 576.4, 619.2)">a</text><text xml:space="preserve" font-family="Helvetica,Helvetica" font-size="80.0" fill="#FEFFFF" transform="matrix(1.00, 0.00, -0.00, -1.00, 620.9, 619.2)">i</text><text xml:space="preserve" font-family="Helvetica,Helvetica" font-size="80.0" fill="#FEFFFF" transform="matrix(1.00, 0.00, -0.00, -1.00, 638.7, 619.2)">n</text><text xml:space="preserve" font-family="Helvetica,Helvetica" font-size="80.0" fill="#FEFFFF" transform="matrix(1.00, 0.00, -0.00, -1.00, 683.2, 619.2)"> </text><text xml:space="preserve" font-family="Helvetica,Helvetica" font-size="80.0" fill="#FEFFFF" transform="matrix(1.00, 0.00, -0.00, -1.00, 705.4, 619.2)">d</text><text xml:space="preserve" font-family="Helvetica,Helvetica" font-size="80.0" fill="#FEFFFF" transform="matrix(1.00, 0.00, -0.00, -1.00, 750.0, 619.2)">e</text><text xml:space="preserve" font-family="Helvetica,Helvetica" font-size="80.0" fill="#FEFFFF" transform="matrix(1.00, 0.00, -0.00, -1.00, 794.5, 619.2)"> </text><text xml:space="preserve" font-family="Helvetica,Helvetica" font-size="80.0" fill="#FEFFFF" transform="matrix(1.00, 0.00, -0.00, -1.00, 816.7, 619.2)">s</text><text xml:space="preserve" font-family="Helvetica,Helvetica" font-size="80.0" fill="#FEFFFF" transform="matrix(1.00, 0.00, -0.00, -1.00, 856.7, 619.2)">e</text><text xml:space="preserve" font-family="Helvetica,Helvetica" font-size="80.0" fill="#FEFFFF" transform="matrix(1.00, 0.00, -0.00, -1.00, 901.1, 619.2)">l</text><image xlink:href="FE39A0EDA5630DE480DE0C0F069DEB43.png" width="900.00" height="420.00" transform="matrix(1.12, 0.00, -0.00, -1.12, 10.0, 471.0)"></image></g></svg>