<?xml version="1.0" encoding="UTF-8"?><svg xmlns="http://www.w3.org/2000/svg" xmlns:xlink="http://www.w3.org/1999/xlink" clip-rule="evenodd" stroke-miterlimit="10" viewBox="0 0 1024 768"><desc>SVG generated by Keynote</desc><defs></defs><g transform="matrix(1.00, 0.00, -0.00, -1.00, 0.0, 768.0)"><path d="M 0.0 0.0 L 1024.0 0.0 L 1024.0 768.0 L 0.0 768.0 Z M 0.0 0.0 " fill="#000000"></path><g opacity="0.57"><g><clipPath id="clip0x6080010acea0"><path d="M 0.0 812.0 L 1024.0 812.0 L 1024.0 -61.0 L 0.0 -61.0 Z M 0.0 811.5 "></path></clipPath><g clip-path="url(#clip0x6080010acea0)"><g><clipPath id="clip0x6080010acc60"><path d="M 0.0 0.0 L 1024.0 0.0 L 1024.0 768.0 L 0.0 768.0 Z M 0.0 0.0 "></path></clipPath><g clip-path="url(#clip0x6080010acc60)"><image xlink:href="4BF14022B377846F912486EE1AD28972.jpeg" width="1280.00" height="853.00" transform="matrix(0.93, 0.00, -0.00, -0.92, -80.0, 778.0)"></image></g></g></g></g></g><g><clipPath id="clip0x600000eb7c40"><path d="M 0.0 594.0 L 1024.0 594.0 L 1024.0 174.0 L 0.0 174.0 Z M 0.0 594.5 "></path></clipPath><g clip-path="url(#clip0x600000eb7c40)"><image xlink:href="../../63FDE3F6-E1E4-4BEC-8BAE-FAEF5D63F8B5/assets/4BF14022B377846F912486EE1AD28972.jpeg" width="1280.00" height="853.00" transform="matrix(0.93, 0.00, -0.00, -0.92, -80.0, 778.0)"></image></g></g><text xml:space="preserve" font-family="LeagueSpartan-Bold,League Spartan" font-weight="bold" font-size="75.2" fill="#FEFFFF" transform="matrix(1.00, 0.00, -0.00, -1.00, 67.5, 627.1)">M</text><text xml:space="preserve" font-family="LeagueSpartan-Bold,League Spartan" font-weight="bold" font-size="75.2" fill="#FEFFFF" transform="matrix(1.00, 0.00, -0.00, -1.00, 138.6, 627.1)">e</text><text xml:space="preserve" font-family="LeagueSpartan-Bold,League Spartan" font-weight="bold" font-size="75.2" fill="#FEFFFF" transform="matrix(1.00, 0.00, -0.00, -1.00, 183.6, 627.1)">t</text><text xml:space="preserve" font-family="LeagueSpartan-Bold,League Spartan" font-weight="bold" font-size="75.2" fill="#FEFFFF" transform="matrix(1.00, 0.00, -0.00, -1.00, 212.9, 627.1)">t</text><text xml:space="preserve" font-family="LeagueSpartan-Bold,League Spartan" font-weight="bold" font-size="75.2" fill="#FEFFFF" transform="matrix(1.00, 0.00, -0.00, -1.00, 242.6, 627.1)">r</text><text xml:space="preserve" font-family="LeagueSpartan-Bold,League Spartan" font-weight="bold" font-size="75.2" fill="#FEFFFF" transform="matrix(1.00, 0.00, -0.00, -1.00, 279.6, 627.1)">e</text><text xml:space="preserve" font-family="LeagueSpartan-Bold,League Spartan" font-weight="bold" font-size="75.2" fill="#FEFFFF" transform="matrix(1.00, 0.00, -0.00, -1.00, 324.9, 627.1)"> </text><text xml:space="preserve" font-family="LeagueSpartan-Bold,League Spartan" font-weight="bold" font-size="75.2" fill="#FEFFFF" transform="matrix(1.00, 0.00, -0.00, -1.00, 345.4, 627.1)">s</text><text xml:space="preserve" font-family="LeagueSpartan-Bold,League Spartan" font-weight="bold" font-size="75.2" fill="#FEFFFF" transform="matrix(1.00, 0.00, -0.00, -1.00, 382.4, 627.1)">o</text><text xml:space="preserve" font-family="LeagueSpartan-Bold,League Spartan" font-weight="bold" font-size="75.2" fill="#FEFFFF" transform="matrix(1.00, 0.00, -0.00, -1.00, 432.0, 627.1)">n</text><text xml:space="preserve" font-family="LeagueSpartan-Bold,League Spartan" font-weight="bold" font-size="75.2" fill="#FEFFFF" transform="matrix(1.00, 0.00, -0.00, -1.00, 481.7, 627.1)"> </text><text xml:space="preserve" font-family="LeagueSpartan-Bold,League Spartan" font-weight="bold" font-size="75.2" fill="#FEFFFF" transform="matrix(1.00, 0.00, -0.00, -1.00, 502.2, 627.1)">g</text><text xml:space="preserve" font-family="LeagueSpartan-Bold,League Spartan" font-weight="bold" font-size="75.2" fill="#FEFFFF" transform="matrix(1.00, 0.00, -0.00, -1.00, 553.6, 627.1)">r</text><text xml:space="preserve" font-family="LeagueSpartan-Bold,League Spartan" font-weight="bold" font-size="75.2" fill="#FEFFFF" transform="matrix(1.00, 0.00, -0.00, -1.00, 590.4, 627.1)">a</text><text xml:space="preserve" font-family="LeagueSpartan-Bold,League Spartan" font-weight="bold" font-size="75.2" fill="#FEFFFF" transform="matrix(1.00, 0.00, -0.00, -1.00, 641.8, 627.1)">i</text><text xml:space="preserve" font-family="LeagueSpartan-Bold,League Spartan" font-weight="bold" font-size="75.2" fill="#FEFFFF" transform="matrix(1.00, 0.00, -0.00, -1.00, 664.5, 627.1)">n</text><text xml:space="preserve" font-family="LeagueSpartan-Bold,League Spartan" font-weight="bold" font-size="75.2" fill="#FEFFFF" transform="matrix(1.00, 0.00, -0.00, -1.00, 714.2, 627.1)"> </text><text xml:space="preserve" font-family="LeagueSpartan-Bold,League Spartan" font-weight="bold" font-size="75.2" fill="#FEFFFF" transform="matrix(1.00, 0.00, -0.00, -1.00, 734.7, 627.1)">d</text><text xml:space="preserve" font-family="LeagueSpartan-Bold,League Spartan" font-weight="bold" font-size="75.2" fill="#FEFFFF" transform="matrix(1.00, 0.00, -0.00, -1.00, 786.1, 627.1)">e</text><text xml:space="preserve" font-family="LeagueSpartan-Bold,League Spartan" font-weight="bold" font-size="75.2" fill="#FEFFFF" transform="matrix(1.00, 0.00, -0.00, -1.00, 831.4, 627.1)"> </text><text xml:space="preserve" font-family="LeagueSpartan-Bold,League Spartan" font-weight="bold" font-size="75.2" fill="#FEFFFF" transform="matrix(1.00, 0.00, -0.00, -1.00, 852.0, 627.1)">s</text><text xml:space="preserve" font-family="LeagueSpartan-Bold,League Spartan" font-weight="bold" font-size="75.2" fill="#FEFFFF" transform="matrix(1.00, 0.00, -0.00, -1.00, 889.0, 627.1)">e</text><text xml:space="preserve" font-family="LeagueSpartan-Bold,League Spartan" font-weight="bold" font-size="75.2" fill="#FEFFFF" transform="matrix(1.00, 0.00, -0.00, -1.00, 934.2, 627.1)">l</text><text xml:space="preserve" font-family="LeagueSpartan-Bold,League Spartan" font-weight="bold" font-size="53.6" fill="#FEFFFF" transform="matrix(1.00, 0.00, -0.00, -1.00, 93.2, 113.6)">Q</text><text xml:space="preserve" font-family="LeagueSpartan-Bold,League Spartan" font-weight="bold" font-size="53.6" fill="#FEFFFF" transform="matrix(1.00, 0.00, -0.00, -1.00, 139.7, 113.6)">u</text><text xml:space="preserve" font-family="LeagueSpartan-Bold,League Spartan" font-weight="bold" font-size="53.6" fill="#FEFFFF" transform="matrix(1.00, 0.00, -0.00, -1.00, 174.9, 113.6)">a</text><text xml:space="preserve" font-family="LeagueSpartan-Bold,League Spartan" font-weight="bold" font-size="53.6" fill="#FEFFFF" transform="matrix(1.00, 0.00, -0.00, -1.00, 211.5, 113.6)">n</text><text xml:space="preserve" font-family="LeagueSpartan-Bold,League Spartan" font-weight="bold" font-size="53.6" fill="#FEFFFF" transform="matrix(1.00, 0.00, -0.00, -1.00, 246.9, 113.6)">d</text><text xml:space="preserve" font-family="LeagueSpartan-Bold,League Spartan" font-weight="bold" font-size="53.6" fill="#FEFFFF" transform="matrix(1.00, 0.00, -0.00, -1.00, 283.5, 113.6)"> </text><text xml:space="preserve" font-family="LeagueSpartan-Bold,League Spartan" font-weight="bold" font-size="53.6" fill="#FEFFFF" transform="matrix(1.00, 0.00, -0.00, -1.00, 298.1, 113.6)">q</text><text xml:space="preserve" font-family="LeagueSpartan-Bold,League Spartan" font-weight="bold" font-size="53.6" fill="#FEFFFF" transform="matrix(1.00, 0.00, -0.00, -1.00, 334.7, 113.6)">u</text><text xml:space="preserve" font-family="LeagueSpartan-Bold,League Spartan" font-weight="bold" font-size="53.6" fill="#FEFFFF" transform="matrix(1.00, 0.00, -0.00, -1.00, 369.9, 113.6)">e</text><text xml:space="preserve" font-family="LeagueSpartan-Bold,League Spartan" font-weight="bold" font-size="53.6" fill="#FEFFFF" transform="matrix(1.00, 0.00, -0.00, -1.00, 402.1, 113.6)">l</text><text xml:space="preserve" font-family="LeagueSpartan-Bold,League Spartan" font-weight="bold" font-size="53.6" fill="#FEFFFF" transform="matrix(1.00, 0.00, -0.00, -1.00, 418.0, 113.6)">q</text><text xml:space="preserve" font-family="LeagueSpartan-Bold,League Spartan" font-weight="bold" font-size="53.6" fill="#FEFFFF" transform="matrix(1.00, 0.00, -0.00, -1.00, 454.6, 113.6)">u</text><text xml:space="preserve" font-family="LeagueSpartan-Bold,League Spartan" font-weight="bold" font-size="53.6" fill="#FEFFFF" transform="matrix(1.00, 0.00, -0.00, -1.00, 489.8, 113.6)">'</text><text xml:space="preserve" font-family="LeagueSpartan-Bold,League Spartan" font-weight="bold" font-size="53.6" fill="#FEFFFF" transform="matrix(1.00, 0.00, -0.00, -1.00, 505.4, 113.6)">u</text><text xml:space="preserve" font-family="LeagueSpartan-Bold,League Spartan" font-weight="bold" font-size="53.6" fill="#FEFFFF" transform="matrix(1.00, 0.00, -0.00, -1.00, 540.6, 113.6)">n</text><text xml:space="preserve" font-family="LeagueSpartan-Bold,League Spartan" font-weight="bold" font-size="53.6" fill="#FEFFFF" transform="matrix(1.00, 0.00, -0.00, -1.00, 576.0, 113.6)"> </text><text xml:space="preserve" font-family="LeagueSpartan-Bold,League Spartan" font-weight="bold" font-size="53.6" fill="#FEFFFF" transform="matrix(1.00, 0.00, -0.00, -1.00, 590.6, 113.6)">n</text><text xml:space="preserve" font-family="LeagueSpartan-Bold,League Spartan" font-weight="bold" font-size="53.6" fill="#FEFFFF" transform="matrix(1.00, 0.00, -0.00, -1.00, 626.1, 113.6)">e</text><text xml:space="preserve" font-family="LeagueSpartan-Bold,League Spartan" font-weight="bold" font-size="53.6" fill="#FEFFFF" transform="matrix(1.00, 0.00, -0.00, -1.00, 658.4, 113.6)"> </text><text xml:space="preserve" font-family="LeagueSpartan-Bold,League Spartan" font-weight="bold" font-size="53.6" fill="#FEFFFF" transform="matrix(1.00, 0.00, -0.00, -1.00, 673.0, 113.6)">s</text><text xml:space="preserve" font-family="LeagueSpartan-Bold,League Spartan" font-weight="bold" font-size="53.6" fill="#FEFFFF" transform="matrix(1.00, 0.00, -0.00, -1.00, 699.4, 113.6)">’</text><text xml:space="preserve" font-family="LeagueSpartan-Bold,League Spartan" font-weight="bold" font-size="53.6" fill="#FEFFFF" transform="matrix(1.00, 0.00, -0.00, -1.00, 712.0, 113.6)">o</text><text xml:space="preserve" font-family="LeagueSpartan-Bold,League Spartan" font-weight="bold" font-size="53.6" fill="#FEFFFF" transform="matrix(1.00, 0.00, -0.00, -1.00, 747.5, 113.6)">c</text><text xml:space="preserve" font-family="LeagueSpartan-Bold,League Spartan" font-weight="bold" font-size="53.6" fill="#FEFFFF" transform="matrix(1.00, 0.00, -0.00, -1.00, 773.8, 113.6)">c</text><text xml:space="preserve" font-family="LeagueSpartan-Bold,League Spartan" font-weight="bold" font-size="53.6" fill="#FEFFFF" transform="matrix(1.00, 0.00, -0.00, -1.00, 800.1, 113.6)">u</text><text xml:space="preserve" font-family="LeagueSpartan-Bold,League Spartan" font-weight="bold" font-size="53.6" fill="#FEFFFF" transform="matrix(1.00, 0.00, -0.00, -1.00, 835.3, 113.6)">p</text><text xml:space="preserve" font-family="LeagueSpartan-Bold,League Spartan" font-weight="bold" font-size="53.6" fill="#FEFFFF" transform="matrix(1.00, 0.00, -0.00, -1.00, 871.9, 113.6)">e</text><text xml:space="preserve" font-family="LeagueSpartan-Bold,League Spartan" font-weight="bold" font-size="53.6" fill="#FEFFFF" transform="matrix(1.00, 0.00, -0.00, -1.00, 904.1, 113.6)">r</text><text xml:space="preserve" font-family="LeagueSpartan-Bold,League Spartan" font-weight="bold" font-size="53.6" fill="#FEFFFF" transform="matrix(1.00, 0.00, -0.00, -1.00, 930.8, 113.6)"> </text><text xml:space="preserve" font-family="LeagueSpartan-Bold,League Spartan" font-weight="bold" font-size="53.6" fill="#FEFFFF" transform="matrix(1.00, 0.00, -0.00, -1.00, 253.3, 33.6)">p</text><text xml:space="preserve" font-family="LeagueSpartan-Bold,League Spartan" font-weight="bold" font-size="53.6" fill="#FEFFFF" transform="matrix(1.00, 0.00, -0.00, -1.00, 289.9, 33.6)">a</text><text xml:space="preserve" font-family="LeagueSpartan-Bold,League Spartan" font-weight="bold" font-size="53.6" fill="#FEFFFF" transform="matrix(1.00, 0.00, -0.00, -1.00, 326.3, 33.6)">s</text><text xml:space="preserve" font-family="LeagueSpartan-Bold,League Spartan" font-weight="bold" font-size="53.6" fill="#FEFFFF" transform="matrix(1.00, 0.00, -0.00, -1.00, 352.6, 33.6)"> </text><text xml:space="preserve" font-family="LeagueSpartan-Bold,League Spartan" font-weight="bold" font-size="53.6" fill="#FEFFFF" transform="matrix(1.00, 0.00, -0.00, -1.00, 367.3, 33.6)">d</text><text xml:space="preserve" font-family="LeagueSpartan-Bold,League Spartan" font-weight="bold" font-size="53.6" fill="#FEFFFF" transform="matrix(1.00, 0.00, -0.00, -1.00, 403.9, 33.6)">e</text><text xml:space="preserve" font-family="LeagueSpartan-Bold,League Spartan" font-weight="bold" font-size="53.6" fill="#FEFFFF" transform="matrix(1.00, 0.00, -0.00, -1.00, 436.2, 33.6)"> </text><text xml:space="preserve" font-family="LeagueSpartan-Bold,League Spartan" font-weight="bold" font-size="53.6" fill="#FEFFFF" transform="matrix(1.00, 0.00, -0.00, -1.00, 450.8, 33.6)">s</text><text xml:space="preserve" font-family="LeagueSpartan-Bold,League Spartan" font-weight="bold" font-size="53.6" fill="#FEFFFF" transform="matrix(1.00, 0.00, -0.00, -1.00, 477.2, 33.6)">e</text><text xml:space="preserve" font-family="LeagueSpartan-Bold,League Spartan" font-weight="bold" font-size="53.6" fill="#FEFFFF" transform="matrix(1.00, 0.00, -0.00, -1.00, 509.3, 33.6)">s</text><text xml:space="preserve" font-family="LeagueSpartan-Bold,League Spartan" font-weight="bold" font-size="53.6" fill="#FEFFFF" transform="matrix(1.00, 0.00, -0.00, -1.00, 535.7, 33.6)"> </text><text xml:space="preserve" font-family="LeagueSpartan-Bold,League Spartan" font-weight="bold" font-size="53.6" fill="#FEFFFF" transform="matrix(1.00, 0.00, -0.00, -1.00, 550.3, 33.6)">o</text><text xml:space="preserve" font-family="LeagueSpartan-Bold,League Spartan" font-weight="bold" font-size="53.6" fill="#FEFFFF" transform="matrix(1.00, 0.00, -0.00, -1.00, 585.6, 33.6)">i</text><text xml:space="preserve" font-family="LeagueSpartan-Bold,League Spartan" font-weight="bold" font-size="53.6" fill="#FEFFFF" transform="matrix(1.00, 0.00, -0.00, -1.00, 601.8, 33.6)">g</text><text xml:space="preserve" font-family="LeagueSpartan-Bold,League Spartan" font-weight="bold" font-size="53.6" fill="#FEFFFF" transform="matrix(1.00, 0.00, -0.00, -1.00, 638.4, 33.6)">n</text><text xml:space="preserve" font-family="LeagueSpartan-Bold,League Spartan" font-weight="bold" font-size="53.6" fill="#FEFFFF" transform="matrix(1.00, 0.00, -0.00, -1.00, 673.9, 33.6)">o</text><text xml:space="preserve" font-family="LeagueSpartan-Bold,League Spartan" font-weight="bold" font-size="53.6" fill="#FEFFFF" transform="matrix(1.00, 0.00, -0.00, -1.00, 709.2, 33.6)">n</text><text xml:space="preserve" font-family="LeagueSpartan-Bold,League Spartan" font-weight="bold" font-size="53.6" fill="#FEFFFF" transform="matrix(1.00, 0.00, -0.00, -1.00, 744.4, 33.6)">s</text></g></svg>